<?xml version="1.0" encoding="UTF-8" standalone="no"?>
<!-- Created with Inkscape (http://www.inkscape.org/) -->

<svg
   xmlns:dc="http://purl.org/dc/elements/1.1/"
   xmlns:cc="http://creativecommons.org/ns#"
   xmlns:rdf="http://www.w3.org/1999/02/22-rdf-syntax-ns#"
   xmlns:svg="http://www.w3.org/2000/svg"
   xmlns="http://www.w3.org/2000/svg"
   xmlns:sodipodi="http://sodipodi.sourceforge.net/DTD/sodipodi-0.dtd"
   xmlns:inkscape="http://www.inkscape.org/namespaces/inkscape"
   width="321"
   height="281"
   id="svg2"
   version="1.1"
   inkscape:version="0.48.4 r9939"
   sodipodi:docname="unsupervised.svg">
  <defs
     id="defs4">
    <marker
       inkscape:stockid="Arrow1Lend"
       orient="auto"
       refY="0"
       refX="0"
       id="Arrow1Lend"
       style="overflow:visible">
      <path
         id="path3946"
         d="M 0,0 5,-5 -12.5,0 5,5 0,0 z"
         style="fill-rule:evenodd;stroke:#000000;stroke-width:1pt"
         transform="matrix(-0.8,0,0,-0.8,-10,0)"
         inkscape:connector-curvature="0" />
    </marker>
  </defs>
  <sodipodi:namedview
     id="base"
     pagecolor="#ffffff"
     bordercolor="#666666"
     borderopacity="1.0"
     inkscape:pageopacity="0.0"
     inkscape:pageshadow="2"
     inkscape:zoom="1.979899"
     inkscape:cx="276.15778"
     inkscape:cy="99.895011"
     inkscape:document-units="px"
     inkscape:current-layer="layer1"
     showgrid="true"
     inkscape:window-width="1680"
     inkscape:window-height="1030"
     inkscape:window-x="-3"
     inkscape:window-y="-3"
     inkscape:window-maximized="1"
     fit-margin-top="0"
     fit-margin-left="0"
     fit-margin-right="0"
     fit-margin-bottom="0">
    <inkscape:grid
       type="xygrid"
       id="grid2985"
       empspacing="5"
       visible="true"
       enabled="true"
       snapvisiblegridlinesonly="true"
       originx="-79.5px"
       originy="-419.5px" />
  </sodipodi:namedview>
  <metadata
     id="metadata7">
    <rdf:RDF>
      <cc:Work
         rdf:about="">
        <dc:format>image/svg+xml</dc:format>
        <dc:type
           rdf:resource="http://purl.org/dc/dcmitype/StillImage" />
        <dc:title />
      </cc:Work>
    </rdf:RDF>
  </metadata>
  <g
     inkscape:label="Layer 1"
     inkscape:groupmode="layer"
     id="layer1"
     transform="translate(-79.5,-351.86218)">
    <path
       style="fill:none;stroke:#000000;stroke-width:1px;stroke-linecap:butt;stroke-linejoin:miter;stroke-opacity:1;marker-end:url(#Arrow1Lend)"
       d="m 120,632.36218 0,-280"
       id="path2987"
       inkscape:connector-curvature="0" />
    <path
       style="fill:none;stroke:#000000;stroke-width:1px;stroke-linecap:butt;stroke-linejoin:miter;stroke-opacity:1;marker-start:none;marker-end:url(#Arrow1Lend)"
       d="m 80,592.36218 320,0"
       id="path2989"
       inkscape:connector-curvature="0" />
    <path
       sodipodi:type="arc"
       style="fill:none;stroke:#000000;stroke-width:1;stroke-miterlimit:4;stroke-opacity:1;stroke-dasharray:none;stroke-dashoffset:0"
       id="path4582"
       sodipodi:cx="150"
       sodipodi:cy="557.36218"
       sodipodi:rx="5"
       sodipodi:ry="5"
       d="m 154.99989,557.32853 c 0.0186,2.76137 -2.20488,5.01496 -4.96624,5.03354 -2.76136,0.0186 -5.01495,-2.20488 -5.03354,-4.96624 -0.0186,-2.76136 2.20488,-5.01495 4.96624,-5.03353 2.75323,-0.0185 5.00336,2.19228 5.03335,4.94541"
       sodipodi:start="6.2764556"
       sodipodi:end="12.555476"
       sodipodi:open="true" />
    <path
       transform="translate(25.000002,-14.999998)"
       sodipodi:type="arc"
       style="fill:none;stroke:#000000;stroke-width:1;stroke-miterlimit:4;stroke-opacity:1;stroke-dasharray:none;stroke-dashoffset:0"
       id="path4582-3"
       sodipodi:cx="150"
       sodipodi:cy="557.36218"
       sodipodi:rx="5"
       sodipodi:ry="5"
       d="m 154.99989,557.32853 c 0.0186,2.76137 -2.20488,5.01496 -4.96624,5.03354 -2.76136,0.0186 -5.01495,-2.20488 -5.03354,-4.96624 -0.0186,-2.76136 2.20488,-5.01495 4.96624,-5.03353 2.75323,-0.0185 5.00336,2.19228 5.03335,4.94541"
       sodipodi:start="6.2764556"
       sodipodi:end="12.555476"
       sodipodi:open="true" />
    <path
       transform="translate(55.000002,5.0000024)"
       sodipodi:type="arc"
       style="fill:none;stroke:#000000;stroke-width:1;stroke-miterlimit:4;stroke-opacity:1;stroke-dasharray:none;stroke-dashoffset:0"
       id="path4582-6"
       sodipodi:cx="150"
       sodipodi:cy="557.36218"
       sodipodi:rx="5"
       sodipodi:ry="5"
       d="m 154.99989,557.32853 c 0.0186,2.76137 -2.20488,5.01496 -4.96624,5.03354 -2.76136,0.0186 -5.01495,-2.20488 -5.03354,-4.96624 -0.0186,-2.76136 2.20488,-5.01495 4.96624,-5.03353 2.75323,-0.0185 5.00336,2.19228 5.03335,4.94541"
       sodipodi:start="6.2764556"
       sodipodi:end="12.555476"
       sodipodi:open="true" />
    <path
       transform="translate(50.000002,-44.999998)"
       sodipodi:type="arc"
       style="fill:none;stroke:#000000;stroke-width:1;stroke-miterlimit:4;stroke-opacity:1;stroke-dasharray:none;stroke-dashoffset:0"
       id="path4582-7"
       sodipodi:cx="150"
       sodipodi:cy="557.36218"
       sodipodi:rx="5"
       sodipodi:ry="5"
       d="m 154.99989,557.32853 c 0.0186,2.76137 -2.20488,5.01496 -4.96624,5.03354 -2.76136,0.0186 -5.01495,-2.20488 -5.03354,-4.96624 -0.0186,-2.76136 2.20488,-5.01495 4.96624,-5.03353 2.75323,-0.0185 5.00336,2.19228 5.03335,4.94541"
       sodipodi:start="6.2764556"
       sodipodi:end="12.555476"
       sodipodi:open="true" />
    <path
       transform="translate(125,-145)"
       sodipodi:type="arc"
       style="fill:none;stroke:#000000;stroke-width:1;stroke-miterlimit:4;stroke-opacity:1;stroke-dasharray:none;stroke-dashoffset:0"
       id="path4582-7-2"
       sodipodi:cx="150"
       sodipodi:cy="557.36218"
       sodipodi:rx="5"
       sodipodi:ry="5"
       d="m 154.99989,557.32853 c 0.0186,2.76137 -2.20488,5.01496 -4.96624,5.03354 -2.76136,0.0186 -5.01495,-2.20488 -5.03354,-4.96624 -0.0186,-2.76136 2.20488,-5.01495 4.96624,-5.03353 2.75323,-0.0185 5.00336,2.19228 5.03335,4.94541"
       sodipodi:start="6.2764556"
       sodipodi:end="12.555476"
       sodipodi:open="true" />
    <path
       transform="translate(110,-104.34391)"
       sodipodi:type="arc"
       style="fill:none;stroke:#000000;stroke-width:1;stroke-miterlimit:4;stroke-opacity:1;stroke-dasharray:none;stroke-dashoffset:0"
       id="path4582-7-6"
       sodipodi:cx="150"
       sodipodi:cy="557.36218"
       sodipodi:rx="5"
       sodipodi:ry="5"
       d="m 154.99989,557.32853 c 0.0186,2.76137 -2.20488,5.01496 -4.96624,5.03354 -2.76136,0.0186 -5.01495,-2.20488 -5.03354,-4.96624 -0.0186,-2.76136 2.20488,-5.01495 4.96624,-5.03353 2.75323,-0.0185 5.00336,2.19228 5.03335,4.94541"
       sodipodi:start="6.2764556"
       sodipodi:end="12.555476"
       sodipodi:open="true" />
    <path
       transform="translate(115.32804,-77.449873)"
       sodipodi:type="arc"
       style="fill:none;stroke:#000000;stroke-width:1;stroke-miterlimit:4;stroke-opacity:1;stroke-dasharray:none;stroke-dashoffset:0"
       id="path4582-7-1"
       sodipodi:cx="150"
       sodipodi:cy="557.36218"
       sodipodi:rx="5"
       sodipodi:ry="5"
       d="m 154.99989,557.32853 c 0.0186,2.76137 -2.20488,5.01496 -4.96624,5.03354 -2.76136,0.0186 -5.01495,-2.20488 -5.03354,-4.96624 -0.0186,-2.76136 2.20488,-5.01495 4.96624,-5.03353 2.75323,-0.0185 5.00336,2.19228 5.03335,4.94541"
       sodipodi:start="6.2764556"
       sodipodi:end="12.555476"
       sodipodi:open="true" />
    <path
       transform="translate(154.24239,-89.494922)"
       sodipodi:type="arc"
       style="fill:none;stroke:#000000;stroke-width:1;stroke-miterlimit:4;stroke-opacity:1;stroke-dasharray:none;stroke-dashoffset:0"
       id="path4582-7-8"
       sodipodi:cx="150"
       sodipodi:cy="557.36218"
       sodipodi:rx="5"
       sodipodi:ry="5"
       d="m 154.99989,557.32853 c 0.0186,2.76137 -2.20488,5.01496 -4.96624,5.03354 -2.76136,0.0186 -5.01495,-2.20488 -5.03354,-4.96624 -0.0186,-2.76136 2.20488,-5.01495 4.96624,-5.03353 2.75323,-0.0185 5.00336,2.19228 5.03335,4.94541"
       sodipodi:start="6.2764556"
       sodipodi:end="12.555476"
       sodipodi:open="true" />
    <path
       transform="translate(151.38896,-118.10596)"
       sodipodi:type="arc"
       style="fill:none;stroke:#000000;stroke-width:1;stroke-miterlimit:4;stroke-opacity:1;stroke-dasharray:none;stroke-dashoffset:0"
       id="path4582-7-7"
       sodipodi:cx="150"
       sodipodi:cy="557.36218"
       sodipodi:rx="5"
       sodipodi:ry="5"
       d="m 154.99989,557.32853 c 0.0186,2.76137 -2.20488,5.01496 -4.96624,5.03354 -2.76136,0.0186 -5.01495,-2.20488 -5.03354,-4.96624 -0.0186,-2.76136 2.20488,-5.01495 4.96624,-5.03353 2.75323,-0.0185 5.00336,2.19228 5.03335,4.94541"
       sodipodi:start="6.2764556"
       sodipodi:end="12.555476"
       sodipodi:open="true" />
  </g>
</svg>
